
<svg xmlns="http://www.w3.org/2000/svg" xmlns:xlink="http://www.w3.org/1999/xlink" width="192px" height="192px" viewBox="0 0 192 192" version="1.1">
<defs>
<filter id="alpha" filterUnits="objectBoundingBox" x="0%" y="0%" width="100%" height="100%">
  <feColorMatrix type="matrix" in="SourceGraphic" values="0 0 0 0 1 0 0 0 0 1 0 0 0 0 1 0 0 0 1 0"/>
</filter>
<mask id="mask0">
  <g filter="url(#alpha)">
<rect x="0" y="0" width="192" height="192" style="fill:rgb(0%,0%,0%);fill-opacity:0.15;stroke:none;"/>
  </g>
</mask>
<clipPath id="clip1">
  <rect x="0" y="0" width="192" height="192"/>
</clipPath>
<g id="surface5" clip-path="url(#clip1)">
<path style=" stroke:none;fill-rule:nonzero;fill:rgb(0%,0%,0%);fill-opacity:1;" d="M 154.078125 94.867188 C 154.078125 129.898438 125.679688 158.296875 90.648438 158.296875 C 55.617188 158.296875 27.21875 129.898438 27.21875 94.867188 C 27.21875 59.839844 55.617188 31.441406 90.648438 31.441406 C 125.679688 31.441406 154.078125 59.839844 154.078125 94.867188 Z M 154.078125 94.867188 "/>
</g>
<mask id="mask1">
  <g filter="url(#alpha)">
<rect x="0" y="0" width="192" height="192" style="fill:rgb(0%,0%,0%);fill-opacity:0.29603;stroke:none;"/>
  </g>
</mask>
<clipPath id="clip2">
  <rect x="0" y="0" width="192" height="192"/>
</clipPath>
<g id="surface8" clip-path="url(#clip2)">
<path style=" stroke:none;fill-rule:nonzero;fill:rgb(100%,100%,0%);fill-opacity:1;" d="M 108.953125 94.128906 C 108.953125 101.683594 102.828125 107.808594 95.273438 107.808594 C 87.71875 107.808594 81.59375 101.683594 81.59375 94.128906 C 81.59375 86.574219 87.71875 80.449219 95.273438 80.449219 C 102.828125 80.449219 108.953125 86.574219 108.953125 94.128906 Z M 108.953125 94.128906 "/>
</g>
</defs>
<g id="surface1">
<path style=" stroke:none;fill-rule:nonzero;fill:rgb(18.039216%,70.19608%,59.607846%);fill-opacity:1;" d="M 171.640625 94.867188 C 171.640625 139.605469 135.375 175.867188 90.640625 175.867188 C 45.90625 175.867188 9.640625 139.605469 9.640625 94.867188 C 9.640625 50.132812 45.90625 13.871094 90.640625 13.871094 C 135.375 13.871094 171.640625 50.132812 171.640625 94.867188 Z M 171.640625 94.867188 "/>
<use xlink:href="#surface5" mask="url(#mask0)"/>
<use xlink:href="#surface8" mask="url(#mask1)"/>
<path style=" stroke:none;fill-rule:nonzero;fill:rgb(49.411765%,49.803922%,100%);fill-opacity:1;" d="M 84.570312 64.679688 C 74.5 64.507812 65.128906 70.121094 60.046875 79.363281 C 54.964844 88.605469 54.964844 100.039062 60.046875 109.28125 C 65.128906 118.523438 74.5 124.136719 84.570312 123.964844 C 99.796875 123.710938 112.015625 110.511719 112.015625 94.324219 C 112.015625 78.132812 99.796875 64.9375 84.570312 64.679688 M 84.570312 76.535156 C 90.628906 76.402344 96.28125 79.765625 99.347656 85.324219 C 102.414062 90.882812 102.410156 97.769531 99.34375 103.328125 C 96.277344 108.886719 90.621094 112.246094 84.5625 112.113281 C 75.453125 111.914062 68.167969 104.007812 68.167969 94.324219 C 68.167969 84.636719 75.453125 76.730469 84.5625 76.535156 "/>
<path style=" stroke:none;fill-rule:nonzero;fill:rgb(36.862746%,9.019608%,92.156863%);fill-opacity:1;" d="M 132.039062 132.210938 C 128.601562 133.183594 125.53125 133.707031 122.839844 133.707031 C 113.863281 133.707031 107.804688 127.125 104.738281 113.882812 L 104.363281 113.882812 C 96.957031 128.171875 86.558594 135.277344 73.46875 135.277344 C 63.671875 135.277344 55.816406 131.613281 49.90625 124.207031 C 43.996094 116.800781 41.082031 107.527344 41.082031 96.304688 C 41.082031 83.214844 44.445312 72.742188 51.105469 64.589844 C 57.761719 56.4375 66.8125 52.320312 78.257812 52.320312 C 84.390625 52.320312 89.925781 54.039062 94.714844 57.410156 C 99.5 60.847656 103.167969 65.636719 105.710938 71.84375 L 106.007812 71.84375 L 111.320312 53.890625 L 130.46875 53.890625 L 114.460938 93.6875 C 116.257812 102.964844 118.128906 109.320312 120.222656 112.6875 C 122.015625 116.054688 124.558594 117.773438 127.703125 117.773438 C 129.496094 117.773438 130.917969 117.472656 132.191406 116.949219 L 132.039062 132.210938 M 100.175781 93.015625 C 98.605469 84.5625 96.058594 77.980469 92.621094 73.492188 C 89.253906 68.929688 85.140625 66.683594 80.425781 66.683594 C 74.292969 66.683594 69.355469 69.453125 65.691406 74.914062 C 62.023438 80.449219 60.378906 87.253906 60.378906 95.257812 C 60.378906 102.589844 61.800781 108.648438 65.015625 113.585938 C 68.160156 118.523438 72.421875 120.917969 77.734375 120.917969 C 82.222656 120.917969 86.335938 118.746094 90 114.632812 C 93.742188 110.367188 96.808594 104.160156 99.277344 96.007812 Z M 100.175781 93.015625 "/>
</g>
</svg>
